<svg xmlns="http://www.w3.org/2000/svg" xmlns:xlink="http://www.w3.org/1999/xlink" width="500" zoomAndPan="magnify" viewBox="0 0 375 374.999991" height="500" preserveAspectRatio="xMidYMid meet" version="1.0"><defs><clipPath id="86aac27e4b"><path d="M 51.703125 126 L 323.203125 126 L 323.203125 230 L 51.703125 230 Z M 51.703125 126 " clip-rule="nonzero"/></clipPath><clipPath id="2b24ee37ea"><path d="M 51.703125 211 L 323.203125 211 L 323.203125 314.375 L 51.703125 314.375 Z M 51.703125 211 " clip-rule="nonzero"/></clipPath><clipPath id="449001603f"><path d="M 51.703125 42.875 L 323.203125 42.875 L 323.203125 145 L 51.703125 145 Z M 51.703125 42.875 " clip-rule="nonzero"/></clipPath><clipPath id="28842a2879"><path d="M 160.773438 67.339844 L 205 67.339844 L 205 103 L 160.773438 103 Z M 160.773438 67.339844 " clip-rule="nonzero"/></clipPath><clipPath id="929ec429d7"><path d="M 167 83 L 214.023438 83 L 214.023438 119 L 167 119 Z M 167 83 " clip-rule="nonzero"/></clipPath></defs><g clip-path="url(#86aac27e4b)"><path fill="#a6a6a6" d="M 51.703125 126.894531 L 51.703125 178.667969 C 51.703125 206.671875 112.808594 229.589844 187.496094 229.589844 C 262.179688 229.589844 323.285156 206.671875 323.285156 178.667969 L 323.285156 126.894531 C 296.128906 149.8125 241.8125 161.691406 187.496094 161.691406 C 133.179688 161.691406 78.863281 149.8125 51.703125 126.894531 Z M 51.703125 126.894531 " fill-opacity="1" fill-rule="nonzero"/></g><g clip-path="url(#2b24ee37ea)"><path fill="#a6a6a6" d="M 51.703125 211.765625 L 51.703125 263.535156 C 51.703125 291.542969 112.808594 314.457031 187.496094 314.457031 C 262.179688 314.457031 323.285156 291.542969 323.285156 263.535156 L 323.285156 211.765625 C 296.128906 234.679688 241.8125 246.5625 187.496094 246.5625 C 133.179688 246.5625 78.863281 234.679688 51.703125 211.765625 Z M 51.703125 211.765625 " fill-opacity="1" fill-rule="nonzero"/></g><g clip-path="url(#449001603f)"><path fill="#a6a6a6" d="M 187.496094 144.71875 C 262.179688 144.71875 323.285156 121.804688 323.285156 93.796875 C 323.285156 65.789062 262.179688 42.875 187.496094 42.875 C 112.808594 42.875 51.703125 65.789062 51.703125 93.796875 C 51.703125 121.804688 112.808594 144.71875 187.496094 144.71875 Z M 187.496094 144.71875 " fill-opacity="1" fill-rule="nonzero"/></g><path fill="#ff3131" d="M 327.714844 250.320312 C 326.972656 249.984375 325.691406 249.511719 324.953125 249.175781 C 323.808594 248.90625 322.664062 248.503906 321.585938 248.097656 C 320.304688 247.828125 318.285156 247.355469 317.074219 247.019531 C 296.261719 244.933594 281.3125 259.613281 269.257812 274.632812 C 264.410156 280.691406 256.464844 283.453125 248.921875 281.433594 C 238.414062 278.671875 228.71875 271.871094 225.621094 261.632812 C 223.667969 258.941406 223.734375 255.910156 225.621094 252.675781 C 230.265625 243.722656 238.480469 237.457031 244.878906 229.847656 C 252.152344 218.265625 257.070312 205.199219 259.492188 191.730469 C 260.101562 187.691406 261.445312 183.449219 259.628906 179.542969 C 253.296875 162.976562 231.074219 171.664062 218.078125 174.15625 C 217.941406 174.15625 217.875 174.019531 217.941406 173.886719 C 238.214844 153.546875 247.777344 122.636719 240.367188 94.488281 C 238.078125 85.933594 234.039062 78.257812 227.574219 72.0625 C 219.289062 64.183594 208.582031 59.132812 197.46875 56.839844 C 186.089844 54.484375 174.035156 54.957031 162.921875 58.523438 C 156.523438 60.613281 150.664062 64.113281 145.546875 68.558594 C 140.027344 73.273438 135.175781 79.132812 132.753906 86.136719 C 129.992188 94.148438 129.925781 103.511719 130.933594 111.792969 C 131.339844 115.363281 132.011719 118.863281 132.886719 122.300781 C 137.0625 139.136719 145.480469 154.558594 153.292969 169.910156 C 154.03125 171.324219 154.773438 172.738281 155.449219 174.15625 C 157.535156 176.78125 157.601562 179.742188 155.515625 182.976562 C 150.53125 190.992188 142.652344 196.984375 133.761719 200.148438 C 124.402344 203.449219 114.097656 202.84375 104.9375 199.003906 C 90.054688 192.808594 75.710938 183.042969 70.59375 167.285156 C 66.148438 152.269531 52.34375 139.945312 36.316406 139.945312 C 22.242188 140.078125 15.035156 154.488281 12.003906 166.273438 C 9.3125 176.914062 12.8125 187.488281 19.683594 195.703125 C 21.835938 198.261719 24.328125 200.621094 27.222656 202.371094 C 34.363281 206.816406 44.734375 208.835938 49.378906 199.945312 C 51.601562 195.773438 52.140625 190.652344 51.738281 186.007812 C 51.535156 183.515625 51.132812 180.6875 50.054688 178.464844 C 47.832031 173.953125 42.109375 170.382812 37.058594 174.289062 C 35.171875 175.769531 34.496094 178.398438 35.304688 180.621094 C 35.441406 180.957031 35.574219 181.292969 35.84375 181.5625 C 36.519531 182.101562 37.460938 181.898438 38.269531 181.695312 C 39.277344 181.425781 40.289062 181.089844 41.300781 180.820312 C 42.175781 180.550781 43.253906 180.351562 43.992188 180.957031 C 44.398438 181.292969 44.53125 181.765625 44.734375 182.234375 C 45.40625 184.1875 45.742188 186.410156 45.070312 188.363281 C 44.398438 190.519531 42.714844 192.203125 40.691406 193.144531 C 36.789062 194.964844 31.871094 193.820312 28.773438 190.855469 C 25.675781 187.894531 24.328125 183.3125 24.800781 179.070312 C 25.269531 174.828125 27.359375 170.789062 30.1875 167.554688 C 31.738281 165.804688 33.554688 164.1875 35.710938 163.175781 C 39.210938 161.5625 43.320312 161.695312 45.742188 164.996094 C 50.257812 171.125 52.210938 178.667969 54.296875 185.804688 C 55.980469 191.597656 57.796875 197.386719 60.492188 202.84375 C 65.003906 211.867188 73.894531 218.265625 83.121094 221.832031 C 89.382812 224.257812 96.320312 225.605469 102.917969 226.480469 C 107.027344 227.085938 111.269531 227.152344 115.445312 226.882812 C 119.484375 226.617188 123.390625 225.605469 127.433594 225.132812 C 127.5 225.132812 127.632812 225.132812 127.703125 225.199219 C 128.441406 225.605469 129.65625 226.347656 130.394531 226.75 C 130.460938 226.816406 130.460938 226.953125 130.394531 227.019531 C 119.6875 232.609375 106.152344 243.316406 111 256.988281 C 111.472656 258.199219 111.808594 259.480469 112.144531 260.757812 C 114.433594 269.042969 123.929688 272.476562 128.105469 279.75 C 132.347656 287.089844 128.375 294.363281 122.851562 299.617188 C 121.035156 301.367188 119.285156 302.917969 116.722656 303.65625 C 112.550781 304.9375 108.171875 303.925781 104.199219 302.445312 C 100.359375 300.964844 96.386719 299.28125 93.085938 296.921875 C 91.46875 295.777344 90.054688 294.429688 88.910156 292.8125 C 87.566406 290.996094 87.496094 288.371094 87.226562 286.214844 C 86.957031 283.789062 87.027344 281.367188 87.429688 279.007812 C 88.035156 275.238281 93.019531 260.21875 98.945312 266.078125 C 98.945312 266.078125 99.011719 266.144531 99.011719 266.144531 C 100.15625 270.050781 96.050781 273.015625 96.320312 276.855469 C 96.320312 276.855469 96.320312 276.921875 96.320312 276.921875 C 99.484375 280.828125 104.804688 276.046875 105.816406 272.476562 C 108.84375 262.578125 98.40625 245.605469 87.09375 252.40625 C 76.925781 258.671875 71.671875 272.074219 71.535156 283.589844 C 71.402344 297.796875 81.167969 307.96875 93.558594 313.625 C 99.6875 316.453125 106.285156 318.136719 112.953125 319.011719 C 118.8125 319.484375 125.074219 320.964844 130.867188 319.078125 C 147.769531 315.308594 164.472656 291.0625 148.644531 277.460938 C 138.140625 269.445312 128.242188 253.824219 139.351562 241.835938 C 154.300781 229.105469 171.945312 219.273438 190.667969 213.148438 C 198.210938 211.597656 209.660156 208.230469 213.296875 217.253906 L 213.296875 217.320312 C 212.082031 224.863281 208.042969 231.398438 203.800781 237.59375 C 201.105469 241.566406 197.605469 245 195.179688 249.242188 C 190.128906 258.132812 193.09375 269.582031 198.683594 277.460938 C 202.722656 283.117188 208.109375 287.089844 213.09375 291.871094 C 217.335938 295.980469 221.242188 300.019531 226.359375 303.253906 C 237.472656 310.390625 249.121094 312.546875 262.050781 313.21875 C 262.050781 313.21875 263.46875 313.285156 263.535156 313.285156 C 290 312.546875 289.125 281.636719 303.875 266.414062 C 308.316406 261.835938 315.660156 261.566406 320.371094 265.875 C 324.683594 269.851562 327.914062 275.910156 330.40625 280.289062 C 332.964844 284.800781 329.464844 294.96875 323.605469 289.917969 C 318.824219 286.347656 312.964844 270.121094 310.203125 282.710938 C 310.136719 285.273438 310.136719 287.832031 310.070312 290.390625 C 310 295.777344 313.570312 300.492188 318.757812 301.90625 C 322.730469 302.714844 327.039062 303.925781 330.878906 301.972656 C 338.691406 299.144531 346.636719 293.21875 347.648438 284.394531 C 349.0625 270.121094 339.429688 257.257812 327.714844 250.320312 Z M 137.601562 291.46875 C 137.601562 291.46875 137.601562 291.398438 137.601562 291.398438 C 137.601562 291.398438 137.601562 291.398438 137.601562 291.46875 Z M 225.484375 114.890625 C 232.824219 107.617188 234.039062 117.855469 229.457031 117.652344 C 220.367188 119.402344 216.257812 128.292969 209.121094 133.074219 C 212.488281 126.003906 218.480469 119.132812 225.484375 114.890625 Z M 143.394531 114.351562 C 153.359375 114.488281 160.765625 124.320312 164.671875 132.535156 C 164.742188 132.671875 164.539062 132.804688 164.472656 132.738281 C 157.667969 127.082031 152.148438 119 143.125 116.980469 C 143.257812 115.429688 143.257812 115.902344 143.394531 114.351562 Z M 170.261719 169.105469 C 158.277344 160.484375 153.695312 145.265625 148.980469 131.863281 C 149.925781 131.1875 149.859375 131.324219 150.800781 130.648438 C 162.25 140.28125 172.351562 151.460938 183.125 161.832031 C 183.125 161.898438 183.125 161.964844 183.191406 161.964844 C 181.441406 167.015625 176.324219 173.210938 170.261719 169.105469 Z M 205.011719 168.765625 C 198.816406 173.277344 192.6875 167.621094 190.871094 161.898438 C 190.871094 161.832031 190.871094 161.832031 190.871094 161.761719 C 201.914062 150.382812 214.035156 140.28125 225.417969 129.234375 L 226.359375 128.496094 C 221.914062 142.972656 217 158.800781 205.011719 168.765625 Z M 205.011719 168.765625 " fill-opacity="1" fill-rule="nonzero"/><path fill="#ff3131" d="M 54.160156 135.902344 C 55.238281 135.96875 56.316406 135.96875 57.394531 135.835938 C 63.320312 135.164062 74.097656 131.660156 68.84375 124.859375 C 63.925781 118.394531 57.867188 132.804688 51.0625 127.148438 C 45.878906 122.164062 52.210938 114.960938 57.730469 113.679688 C 57.730469 113.679688 60.761719 112.46875 65.273438 114.621094 C 78.609375 122.03125 87.027344 136.644531 91.203125 151.054688 C 93.085938 157.25 91.671875 163.851562 92.078125 170.179688 C 92.277344 176.578125 96.589844 182.707031 102.109375 185.738281 C 110.394531 189.914062 117.261719 200.148438 127.363281 196.984375 C 128.578125 196.578125 129.722656 196.175781 130.933594 195.839844 C 138.878906 193.75 145.683594 188.363281 150.664062 181.898438 C 133.5625 180.417969 115.578125 171.394531 110.867188 153.816406 C 110.257812 151.527344 109.453125 149.304688 108.574219 147.082031 C 105.277344 138.800781 101.167969 130.042969 95.847656 122.570312 C 87.09375 110.246094 72.34375 103.039062 57.261719 102.972656 C 54.5 102.972656 51.671875 103.375 49.109375 104.453125 C 43.792969 106.609375 41.03125 111.1875 40.558594 116.777344 C 40.15625 121.625 40.085938 126.609375 43.253906 130.648438 C 45.878906 133.882812 49.988281 135.632812 54.160156 135.902344 Z M 54.160156 135.902344 " fill-opacity="1" fill-rule="nonzero"/><path fill="#ff3131" d="M 257.742188 215.773438 C 257.742188 215.773438 269.863281 238.402344 291.011719 238.535156 C 291.820312 238.601562 292.625 238.601562 293.367188 238.601562 C 293.367188 238.601562 293.433594 238.601562 293.570312 238.601562 C 310.808594 236.71875 325.492188 223.988281 333.640625 209.308594 C 341.855469 194.558594 346.839844 169.574219 336.46875 154.289062 C 328.722656 143.511719 318.285156 130.988281 303.402344 132.941406 C 288.113281 134.554688 277.136719 154.488281 283.871094 168.296875 C 290.539062 180.621094 311.28125 168.632812 305.21875 156.914062 C 300.035156 152.671875 298.554688 166.746094 291.953125 164.660156 C 289.527344 154.421875 302.929688 142.097656 312.023438 150.113281 C 333.503906 165.199219 326.972656 210.183594 297.542969 208.835938 C 284.679688 210.117188 282.054688 193.414062 273.769531 186.949219 C 271.007812 183.917969 260.167969 175.703125 264.542969 188.699219 C 265.015625 198.195312 260.707031 206.882812 257.742188 215.773438 Z M 257.742188 215.773438 " fill-opacity="1" fill-rule="nonzero"/><path fill="#ff3131" d="M 223.464844 316.789062 C 223.464844 316.722656 223.398438 316.652344 223.398438 316.652344 C 221.644531 312.210938 212.824219 308.371094 215.519531 315.171875 C 215.71875 315.441406 215.988281 315.644531 216.191406 315.914062 C 219.355469 319.953125 218.011719 326.015625 214.105469 329.046875 C 211.277344 331.199219 207.300781 331.539062 203.933594 330.660156 C 200.90625 329.855469 197 327.96875 195.382812 325.207031 C 193.902344 322.78125 194.910156 319.414062 195.988281 316.992188 C 197.066406 314.433594 198.613281 311.941406 199.152344 309.179688 C 200.097656 304.601562 199.757812 300.019531 198.75 295.507812 C 197.539062 290.253906 194.777344 285.203125 190.734375 281.566406 C 186.425781 277.730469 180.230469 274.027344 177.871094 268.636719 C 175.246094 262.578125 181.238281 259.882812 183.53125 255.773438 C 192.753906 244.257812 192.890625 227.152344 205.078125 217.996094 C 200.90625 217.121094 196.191406 217.589844 191.476562 218.804688 C 191.207031 218.871094 190.9375 218.9375 190.601562 219.003906 C 190.535156 219.003906 190.535156 219.003906 190.464844 219.003906 C 189.925781 219.140625 189.457031 219.273438 188.917969 219.476562 C 188.378906 219.679688 187.773438 219.8125 187.234375 220.015625 C 176.929688 223.515625 167.234375 229.644531 163.257812 232.273438 C 163.257812 232.273438 163.257812 232.273438 163.191406 232.273438 C 162.855469 232.542969 162.585938 232.742188 162.25 233.011719 C 166.894531 242.507812 160.160156 249.378906 155.582031 256.71875 C 153.765625 259.546875 152.820312 262.914062 153.226562 266.28125 C 154.234375 274.96875 162.519531 280.222656 170.332031 284.800781 C 175.582031 287.898438 180.09375 292.207031 183.328125 297.394531 C 184 298.472656 184.605469 299.617188 185.214844 300.761719 C 186.828125 304.0625 187.03125 307.832031 185.820312 311.265625 C 185.011719 313.554688 184.136719 315.847656 183.191406 318.070312 C 182.453125 319.886719 181.980469 321.773438 181.914062 323.65625 C 181.375 341.503906 210.128906 343.726562 220.636719 332.144531 C 226.429688 326.351562 224.273438 318.605469 223.667969 316.855469 C 223.53125 316.921875 223.464844 316.855469 223.464844 316.789062 Z M 223.464844 316.789062 " fill-opacity="1" fill-rule="nonzero"/><g clip-path="url(#28842a2879)"><path fill="#ffffff" d="M 176.433594 80.09375 L 187.925781 67.34375 L 178.632812 67.34375 L 168.179688 79.457031 L 168.179688 67.34375 L 160.773438 67.34375 L 160.773438 102.707031 L 168.179688 102.707031 L 168.179688 89.296875 L 171.507812 85.59375 L 178.421875 96.191406 L 179.761719 98.246094 L 185 93.003906 L 204.808594 73.195312 L 183.929688 91.394531 Z M 176.433594 80.09375 " fill-opacity="1" fill-rule="nonzero"/></g><g clip-path="url(#929ec429d7)"><path fill="#ffffff" d="M 196.121094 109.195312 L 189.902344 93.40625 L 189.085938 91.332031 L 183.460938 96.953125 L 167.355469 113.0625 L 184.074219 98.480469 L 192.347656 118.914062 L 199.921875 118.914062 L 214.222656 83.523438 L 206.230469 83.523438 Z M 196.121094 109.195312 " fill-opacity="1" fill-rule="nonzero"/></g></svg>